<svg version="1.2" xmlns="http://www.w3.org/2000/svg" viewBox="0 0 2200 2200" width="2200" height="2200">
	<title>3d_delivery_box_parcel-ai</title>
	<style>
		.s0 { fill: #e6ecef } 
		.s1 { fill: #f5b977 } 
		.s2 { fill: #de9761 } 
		.s3 { fill: #f6cf94 } 
		.s4 { fill: #5b3731 } 
		.s5 { fill: #442723 } 
		.s6 { fill: #191616 } 
		.s7 { fill: #ffffff } 
	</style>
	<g id="background">
	</g>
	<g id="objects">
		<g id="&lt;Group&gt;">
			<path id="&lt;Path&gt;" class="s0" d="m1843.8 1699.1l-694.7 350.2c-30.9 15.6-67.3 15.6-98.2 0l-260.3-131.2-202.4-102-232-117c-40.5-20.4-40.5-78.3 0-98.7l694.7-350.2c30.9-15.6 67.3-15.6 98.2 0l694.7 350.2c40.5 20.4 40.5 78.3 0 98.7z"/>
			<g id="&lt;Group&gt;">
				<path id="&lt;Path&gt;" class="s1" d="m1820.1 490.5l-670.8-340.1c-29.8-15.1-65-15.2-94.9-0.2l-672.4 337c-19.6 9.8-29.4 28.7-29.5 47.7l-1.9 839.3c0 18.9 9.7 37.9 29.3 47.8l670.8 340c14.9 7.6 31.2 11.4 47.5 11.4 16.2 0.1 32.5-3.6 47.4-11.1l672.4-337.1c19.6-9.8 29.4-28.7 29.5-47.6l1.9-839.3c0-19-9.7-37.9-29.3-47.8z"/>
				<path id="&lt;Path&gt;" class="s2" d="m1848.4 536.6v839.3c0 18.9-9.8 37.8-29.4 47.7l-671.6 338.6c-14.9 7.5-31.1 11.2-47.4 11.2v-1236.8z"/>
				<path id="&lt;Path&gt;" class="s3" d="m1819 584.3l-671.6 338.5c-29.8 15.1-65 15.1-94.8 0l-251.7-126.8-195.6-98.6-224.3-113.1c-39.2-19.8-39.2-75.7 0-95.5l671.6-338.5c29.8-15.1 65-15.1 94.8 0l671.6 338.5c39.2 19.8 39.2 75.7 0 95.5z"/>
				<path id="&lt;Path&gt;" class="s4" d="m1614.6 385.8l-813.7 410.2-195.6-98.6 813.7-410.2z"/>
				<path id="&lt;Path&gt;" class="s5" d="m800.9 796v400l-195.6-98.7v-399.9z"/>
				<g id="&lt;Group&gt;">
					<path id="&lt;Path&gt;" class="s6" d="m940 1627.6c-0.1 3.2 2.2 7.2 5 8.8l39.5 22.7c2.8 1.7 5.1 0.4 5.1-2.9 0-1.2-0.3-2.6-0.9-3.9-0.6-1.3-1.4-2.5-2.5-3.5l-15.5-15.5 0.1-36.9c16.1 6 28.3-3 28.4-22.3l0.1-61.4-24.5-14.1v29.1l-11.4-10.5 0.9 35-14-46.3h7v-17.4l-26.2-15.2-0.2 61.3c-0.1 19.4 12.1 42.5 28.1 55l-0.1 36.9-15.6-2.5c-2-0.3-3.3 1.1-3.3 3.6z"/>
				</g>
				<g id="&lt;Group&gt;">
					<g id="&lt;Group&gt;">
						<path id="&lt;Path&gt;" class="s6" d="m757.7 1509.8c-3.3-1.9-6-0.4-6 3.4v13.3c-0.1 3.8 2.6 8.4 5.9 10.3l117.6 67.9c3.3 1.9 6 0.4 6-3.4v-13.3c0-3.8-2.6-8.4-5.9-10.3z"/>
					</g>
					<g id="&lt;Group&gt;">
						<path id="&lt;Path&gt;" class="s6" d="m851.1 1442.1l-27.4 29.9 16.3 9.5-0.1 59.3 21.8 12.6 0.2-59.3 16.3 9.4z"/>
					</g>
					<g id="&lt;Group&gt;">
						<path id="&lt;Path&gt;" class="s6" d="m782.6 1402.6l-27.5 29.9 16.4 9.4-0.1 59.3 21.8 12.6 0.2-59.3 16.3 9.5z"/>
					</g>
				</g>
				<g id="&lt;Group&gt;">
					<g id="&lt;Group&gt;">
						<path id="&lt;Path&gt;" class="s6" d="m1718.8 1176.6c7.1-4.1 13.8-3.6 17.6 1.2l7.6 10.1 15.7-19.8q0.2-0.3 0.4-0.4c0.3-0.1 0.5-0.1 0.5 0 0.2 0 0.5 0.2 0.3 0.9l-18.8 62.3c-0.1 0.4-0.4 0.8-0.8 1l-50.6 25.3c-0.5 0.3-0.7-0.1-0.7-0.3-0.1-0.2-0.1-0.7 0.4-1.3l17.2-21.8-14.2-18.5-7.7-10.1q-0.2-0.2-0.4-0.5 0 0-0.1-0.1-0.2-0.2-0.3-0.3-0.1-0.1-0.2-0.2-0.1-0.2-0.2-0.3-0.1-0.1-0.2-0.2-0.2-0.1-0.3-0.2-0.1-0.1-0.2-0.2-0.2-0.1-0.3-0.2-0.1-0.1-0.2-0.2-0.2-0.1-0.3-0.2-0.1 0-0.2-0.1-0.2-0.1-0.3-0.2-0.1-0.1-0.3-0.1-0.1-0.1-0.3-0.2-0.1-0.1-0.2-0.1-0.2-0.1-0.3-0.2-0.1 0-0.3-0.1-0.1-0.1-0.3-0.1-0.1-0.1-0.3-0.1-0.1-0.1-0.3-0.1-0.1-0.1-0.3-0.1-0.1-0.1-0.3-0.1-0.1-0.1-0.3-0.1-0.1-0.1-0.3-0.1-0.1 0-0.3-0.1-0.1 0-0.3 0-0.2 0-0.3-0.1-0.2 0-0.3 0-0.2 0-0.4 0-0.1-0.1-0.2-0.1z"/>
					</g>
					<g id="&lt;Group&gt;">
						<path id="&lt;Path&gt;" class="s6" d="m1631.2 1373.9l47.6-27c1.5-0.9 2.7-0.1 2.7 1.6l0.2 42.3c0 0.9-0.3 1.9-0.8 2.8-0.5 0.9-1.2 1.6-2 2.1l-35.9 20.4c-7.2 4-13.9 3.5-17.6-1.5q-1.1-1.5-1.8-3.4c-0.7-1.9-1.1-4.1-1.2-6.5q0-1.3 0.1-2.7c0.2-2.6 0.7-5.3 1.5-8q0.4-1.2 0.8-2.4z"/>
					</g>
					<g id="&lt;Group&gt;">
						<path id="&lt;Path&gt;" class="s6" d="m1636.4 1297.9c0.5-0.3 0.8-0.3 0.9 0l23.1 38.6c0.2 0.5-0.1 1-0.2 1.3-0.1 0.1-0.3 0.4-0.6 0.6q-0.1 0.1-0.4 0.1l-17.7-0.8-19.5 53.8q-0.1 0.5-0.3 1-0.2 0.5-0.3 1-0.1 0.2-0.2 0.4 0 0.3-0.1 0.6-0.1 0.3-0.2 0.5 0 0.2-0.1 0.4-0.1 0.3-0.2 0.7 0 0.1-0.1 0.3 0 0.3-0.1 0.6c-0.1 0.6-0.2 0.8-0.2 1-0.1 0.5-0.2 0.7-0.2 0.9q0 0.2-0.1 0.4 0 0.3-0.1 0.6 0 0.1 0 0.3-0.1 0.3-0.1 0.6 0 0.2-0.1 0.3 0 0.3 0 0.6-0.1 0.2-0.1 0.4 0 0.2 0 0.5-0.1 0.2-0.1 0.4 0 0.2 0 0.4 0 0.3 0 0.5-0.1 0.2-0.1 0.4 0 0.3 0 0.5 0 0.2 0 0.3 0 0.3 0 0.6c0 0.4 0 0.6 0 0.8l-21.4-28.8c-3.7-4.9-3.9-13.7-0.6-22.8l6.9-19-16.1-0.7c-0.5 0-0.4-0.5-0.4-0.8 0-0.2 0.2-0.8 0.7-1.2z"/>
					</g>
					<g id="&lt;Group&gt;">
						<path id="&lt;Path&gt;" class="s6" d="m1665.4 1207.4c3.5-2 7-3 10.1-2.8 3.1 0.3 5.7 1.6 7.6 4.1l7.2 9.4-24.6 60.9c-0.5 1.3-1.4 2.4-2.4 2.9-0.5 0.3-1 0.5-1.4 0.4l-31.8-3.3c-0.6-0.1-1.1-0.5-1.2-1.3-0.2-0.7-0.1-1.6 0.3-2.6l18.5-46c3.7-9.2 10.5-17.5 17.7-21.7z"/>
					</g>
					<g id="&lt;Group&gt;">
						<path id="&lt;Path&gt;" class="s6" d="m1723.4 1296q0.1-0.1 0.2-0.1c0.2-0.1 0.6-0.1 0.6 0.6l-0.1 23.2 41.9-24.1q0.4-0.3 0.8-0.5 0.1-0.1 0.2-0.2 0.3-0.1 0.5-0.3 0.2-0.1 0.5-0.3 0.1-0.1 0.3-0.2 0.2-0.2 0.5-0.4c0.4-0.2 0.6-0.4 0.8-0.5 0.3-0.3 0.5-0.4 0.7-0.6 0.4-0.3 0.6-0.4 0.7-0.6 0.4-0.3 0.6-0.4 0.8-0.6 0.3-0.3 0.5-0.5 0.7-0.6 0.3-0.4 0.5-0.5 0.7-0.7q0.1-0.1 0.2-0.2 0.2-0.2 0.4-0.4 0.2-0.1 0.3-0.3 0.2-0.2 0.4-0.4 0.2-0.1 0.3-0.3 0.2-0.2 0.4-0.4 0.2-0.2 0.3-0.4 0.2-0.1 0.3-0.3 0.2-0.2 0.4-0.4 0.2-0.2 0.3-0.3 0.2-0.3 0.4-0.5c0.4-0.4 0.5-0.6 0.6-0.7l-21.5 53.3c-3.7 9.1-10.4 17.4-17.5 21.5l-14.8 8.4-0.1 21.1c0 0.6-0.5 1.1-0.6 1.2q-0.1 0.1-0.3 0.3c-0.2 0.1-0.5 0.1-0.7-0.1l-28.4-28.9c-0.2-0.2-0.2-0.7 0-1.1l29.1-64.4c0.2-0.5 0.4-0.7 0.7-0.8z"/>
					</g>
					<g id="&lt;Group&gt;">
						<path id="&lt;Path&gt;" class="s6" d="m1765.2 1219.2q0.4-0.2 0.8-0.3c0.7-0.2 1.3 0.1 1.7 0.6l16.6 27.2c3.3 5.4 3 14.5-0.7 23.7-0.1 0.4-0.2 0.6-0.3 0.8-0.2 0.4-0.3 0.6-0.4 0.9-0.2 0.4-0.3 0.6-0.4 0.8q-0.1 0.2-0.1 0.3-0.2 0.3-0.3 0.5-0.1 0.3-0.2 0.4-0.1 0.3-0.2 0.5-0.2 0.3-0.3 0.6c-1.6 2.9-3.4 5.5-5.3 7.9q-1.1 1.3-2.2 2.4c-2.1 2.3-4.3 4.2-6.6 5.6q-0.6 0.5-1.3 0.9l-13.8 7.9-22-35.9c-0.7-1.2-0.2-3.4 1.2-5l32.5-38.6q0.6-0.8 1.3-1.2z"/>
					</g>
				</g>
				<g id="&lt;Group&gt;">
					<g id="&lt;Group&gt;">
						<g id="&lt;Group&gt;">
							<path id="&lt;Path&gt;" class="s6" d="m434.3 1339.2c-3-1.8-5.4-0.4-5.4 3.1-0.1 3.4 2.4 7.6 5.4 9.3l84.3 48.7c3 1.8 5.5 0.4 5.5-3.1 0-3.4-2.4-7.6-5.4-9.3z"/>
						</g>
						<g id="&lt;Group&gt;">
							<path id="&lt;Path&gt;" class="s6" d="m434.4 1305.4c-3-1.7-5.4-0.4-5.5 3.1 0 3.4 2.5 7.6 5.5 9.3l130.8 75.6c3 1.7 5.4 0.3 5.4-3.1 0-3.5-2.4-7.7-5.4-9.4z"/>
						</g>
						<g id="&lt;Group&gt;">
							<path id="&lt;Compound Path&gt;" fill-rule="evenodd" class="s7" d="m592.1 1465.5l-185-106.8 0.4-125.4 185 106.8zm-157.8-147.7l130.8 75.5c3 1.8 5.4 0.4 5.5-3.1 0-3.4-2.5-7.6-5.4-9.3l-130.9-75.5c-3-1.8-5.4-0.4-5.4 3.1 0 3.4 2.4 7.6 5.4 9.3zm0.1-33.8l130.8 75.5c3 1.8 5.4 0.4 5.5-3.1 0-3.4-2.5-7.6-5.4-9.3l-130.9-75.5c-3-1.8-5.4-0.4-5.4 3.1 0 3.4 2.4 7.6 5.4 9.3zm-0.2 67.6l84.4 48.7c3 1.8 5.4 0.4 5.4-3.1 0-3.4-2.4-7.6-5.4-9.3l-84.4-48.7c-2.9-1.8-5.4-0.4-5.4 3.1 0 3.4 2.4 7.6 5.4 9.3z"/>
						</g>
						<g id="&lt;Group&gt;">
							<path id="&lt;Path&gt;" class="s6" d="m434.5 1271.6c-3-1.7-5.4-0.4-5.5 3.1 0 3.4 2.5 7.6 5.4 9.3l130.9 75.6c3 1.7 5.4 0.3 5.4-3.1 0-3.5-2.4-7.7-5.4-9.4z"/>
						</g>
					</g>
				</g>
			</g>
		</g>
	</g>
</svg>